<?xml version="1.0" encoding="UTF-8"?>
<svg width="45px" height="16px" viewBox="0 0 45 16" version="1.1" xmlns="http://www.w3.org/2000/svg" xmlns:xlink="http://www.w3.org/1999/xlink">
    <title>g214</title>
    <g id="Footer" stroke="none" stroke-width="1" fill="none" fill-rule="evenodd">
        <g id="BAG-1024" transform="translate(-283.000000, -346.000000)" fill="#1434CB" fill-rule="nonzero">
            <g id="Group-2" transform="translate(283.000000, 342.000000)">
                <g id="g222" transform="translate(22.294455, 12.000000) scale(-1, 1) rotate(-180.000000) translate(-22.294455, -12.000000) translate(0.000000, 4.800000)">
                    <path d="M22.0775358,14.1456484 L19.0986143,0.218642187 L15.4954037,0.218642187 L18.4746384,14.1456484 L22.0775358,14.1456484 Z M37.2358922,5.15281373 L39.1322529,10.382998 L40.2235844,5.15281373 L37.2358922,5.15281373 Z M41.2575928,0.218642187 L44.5889104,0.218642187 L41.6782754,14.1456484 L38.6053817,14.1456484 C37.9124927,14.1456484 37.3286115,13.7440734 37.0701877,13.1247961 L31.663962,0.218642187 L35.4479128,0.218642187 L36.1990646,2.29856214 L40.820935,2.29856214 L41.2575928,0.218642187 Z M31.8515934,4.76564791 C31.8672555,8.44090408 26.7705119,8.64451066 26.8046551,10.286833 C26.8156186,10.7858259 27.2917448,11.3173958 28.3323313,11.4533423 C28.8482391,11.5200626 30.2719193,11.5736269 31.8857367,10.8299928 L32.5169172,13.7847948 C31.6501794,14.0980357 30.5347285,14.4 29.1467578,14.4 C25.5848948,14.4 23.0792804,12.5080246 23.059233,9.79661087 C23.0363664,7.79155555 24.849405,6.67359857 26.2120032,6.0060821 C27.6172022,5.32353005 28.0880033,4.8856192 28.081112,4.27573905 C28.0714015,3.34134128 26.9606491,2.92754998 25.9266407,2.91220117 C24.1139153,2.88369625 23.0633051,3.40179679 22.226012,3.79240825 L21.5719649,0.739248657 C22.4152096,0.353335798 23.9688847,0.0172282526 25.5776903,0 C29.3644602,0 31.8403168,1.87004851 31.8515934,4.76564791 M16.9291074,14.1456484 L11.0912358,0.218642187 L7.28316548,0.218642187 L4.41011943,11.333371 C4.23595745,12.0168628 4.08403559,12.2680821 3.55434513,12.5568902 C2.68792065,13.0276914 1.25766244,13.4677949 0,13.7415675 L0.0852015402,14.1456484 L6.21595354,14.1456484 C6.99686324,14.1456484 7.6994627,13.6259816 7.87832329,12.7266668 L9.39597569,4.66697701 L13.1439038,14.1456484 L16.9291074,14.1456484 Z" id="path224"></path>
                </g>
            </g>
        </g>
    </g>
</svg>